<svg xmlns="http://www.w3.org/2000/svg" height="24" width="24" viewBox="0 0 24 24"><title>24 climbing</title><g stroke-linecap="square" stroke-miterlimit="10" fill="#212121" stroke-linejoin="miter" class="nc-icon-wrapper"> <path d="M3.52865 6.93847C4.59558 6.65259 5.22875 5.55591 4.94286 4.48898C4.65698 3.42205 3.56031 2.78889 2.49338 3.07477C1.42644 3.36065 0.793278 4.45733 1.07916 5.52426C1.36505 6.59119 2.46172 7.22436 3.52865 6.93847Z" stroke="#212121" stroke-width="2" data-color="color-2" fill="none"></path> <path d="M21 3H12V3.5L17 7L15.5 9L15 12L18.2952 14.3996L15.6718 20.4353L17.5 22H21" stroke="#212121" stroke-width="2" data-color="color-2" fill="none"></path> <path d="M12.6596 16.7405L10.1137 15.3381C9.74525 15.1352 9.28923 15.1845 8.97269 15.4615L7.1656 17.0427C6.36743 17.7411 5.11632 17.4132 4.76334 16.4131L3.20558 11.9994C2.86114 11.0234 3.58515 10.0001 4.62008 10.0001L6.58575 10.0001C6.85098 10.0001 7.10535 9.89478 7.29289 9.70723L9.49997 7.5" stroke="#212121" stroke-width="2" fill="none"></path> </g></svg>