<svg xmlns="http://www.w3.org/2000/svg" height="24" width="24" viewBox="0 0 24 24"><title>24 powerlifting</title><g stroke-linecap="square" stroke-miterlimit="10" fill="#212121" stroke-linejoin="miter" class="nc-icon-wrapper"> <path d="M9.5 18H14.5" stroke="#212121" stroke-width="2" fill="none"></path> <path d="M14.5 13H15L14.5 18L16.5363 18.3394C17.0721 18.4287 17.4387 18.9294 17.3618 19.4672L17 22H17.0468" stroke="#212121" stroke-width="2" fill="none"></path> <path d="M9.5 13H9L9.5 18L7.46372 18.3394C6.92789 18.4287 6.56135 18.9294 6.63817 19.4672L7 22H6.93914" stroke="#212121" stroke-width="2" fill="none"></path> <path d="M1 3H23" stroke="#212121" stroke-width="2" data-color="color-2" fill="none"></path> <path d="M2 1L2 5" stroke="#212121" stroke-width="2" data-color="color-2" fill="none"></path> <path d="M22 1L22 5" stroke="#212121" stroke-width="2" data-color="color-2" fill="none"></path> <path d="M12 10C13.1046 10 14 9.10457 14 8C14 6.89543 13.1046 6 12 6C10.8954 6 10 6.89543 10 8C10 9.10457 10.8954 10 12 10Z" stroke="#212121" stroke-width="2" data-color="color-2" fill="none"></path> <path d="M5.54834 6H5.5L9 13H15L18.5 6H18.4087" stroke="#212121" stroke-width="2" fill="none"></path> </g></svg>