<svg width="400" height="400" viewBox="0 0 400 400" fill="none" xmlns="http://www.w3.org/2000/svg" shape-rendering="crispEdges">
  <rect width="400" height="400" fill="#FFFFFF"/>
  <g transform="translate(34.5, 51.5)">
    <path
      d="M236.387 100.792H239.551V110.284L238.195 112.544L221.923 112.996H197.968L194.352 113.447V114.803L194.804 115.255L235.483 115.707L237.291 117.063V124.295L236.387 126.103L234.127 126.555H193.448L193.9 128.815L215.144 129.267L216.951 131.075V138.758L215.596 139.662L194.352 140.114L192.544 141.018V147.346L192.092 151.414L190.736 153.222H182.601L182.149 156.386H204.296L206.556 158.646V164.973L205.2 166.781L201.584 168.137V169.493L203.392 169.945L221.019 170.397L222.827 173.109L223.731 173.561L228.251 174.013L229.607 179.437L230.059 179.889L234.579 180.341L235.483 183.505L237.291 183.957L243.166 184.409L244.522 185.765L245.426 187.573L249.946 188.477L250.85 189.381V192.996L249.946 194.352L248.59 194.804H216.048L215.596 197.516H248.59L251.302 198.42L251.754 198.872V207.46L251.302 208.364L223.279 208.816L222.827 210.624L226.443 211.076L228.251 212.432V216.499L226.895 218.307L221.923 218.759L221.471 221.471L220.567 222.375L207.912 222.827L204.296 225.991H203.392V235.031L202.488 236.387L184.409 236.839L181.697 240.003L178.081 240.454L177.629 248.59L176.273 250.398L169.945 250.85H151.414L149.606 251.302L150.51 253.11L166.781 253.562L168.137 254.918V263.054L166.781 264.41H163.166V266.669L168.137 267.121L168.589 267.573L169.493 272.997L170.849 273.901L174.013 274.353L174.917 275.257L174.465 277.517L173.109 277.969L165.425 278.421L154.126 277.969L152.318 276.161L150.962 273.901L150.058 273.449L145.99 272.997L145.086 272.093V268.929L145.99 267.573L150.962 266.669L151.866 264.41H134.239L131.979 262.15V257.178L132.883 254.466L133.787 253.562L139.663 253.11L140.114 251.754L139.211 250.85L134.691 249.946L134.239 246.33L136.047 244.07L140.566 243.166L145.086 242.714L147.798 239.551L160.002 239.099L161.81 236.387L167.233 235.935L167.685 235.031L168.137 230.059L169.041 229.155L174.013 228.703L176.725 225.539L184.861 225.087L185.313 223.731V214.24L186.669 211.98L187.121 211.528L210.172 211.076L209.72 208.816L197.516 208.364L196.16 206.556V202.488L196.612 198.872L198.42 197.968L201.584 197.516H208.816V194.804L170.849 195.256L168.137 193.9L167.685 186.669L168.589 184.861L175.369 183.957V181.697H157.29L155.482 184.861L150.51 185.313L149.154 186.217L148.702 187.573L148.25 193.9L146.442 195.256L139.211 195.708L138.759 196.16L138.307 207.008L136.499 208.816L135.595 209.268L126.555 209.72L126.103 218.307L125.651 219.663L122.035 222.375L114.803 222.827H109.832L108.476 223.731L108.024 228.703L107.12 230.059L102.6 231.415L102.148 235.031L100.792 236.387L92.6564 236.839H73.2211L69.6053 237.743L70.0572 239.551H80.9048L82.7127 241.81V247.686L81.3568 249.946L80.9048 250.398L57.8537 250.85L54.6898 253.562V262.15L52.8819 263.958L49.2661 264.41L37.0625 264.862L36.1586 266.669L40.6784 267.573L41.5824 268.929V277.065L39.7744 278.421L23.9551 278.873L22.5991 279.325L21.6951 286.557L33.4467 286.105L36.1586 285.653L38.8705 287.009L39.3225 288.817L37.9665 291.076L37.0625 291.528H14.0114L13.1075 291.98L12.6555 294.24L16.2714 294.692L17.6273 296.5V297.404H0.451982L0 272.545V265.314L1.35595 263.958L4.9718 263.054L6.32775 259.438L7.6837 258.534H16.7233L18.0793 259.438L19.4352 262.602L19.8872 263.054H28.0229L30.2828 261.698L30.7348 260.794L31.1868 255.37L32.9947 253.562L37.0625 253.11L37.5145 247.234L37.9665 245.878L38.8705 245.426L43.8423 244.974L47.0062 244.07V232.771L47.9101 230.963L52.4299 230.059L53.7859 229.155L57.4017 228.251L58.7577 225.991L67.7973 225.539L68.7013 223.279L70.5092 221.923L70.9612 213.788L72.3172 211.528L94.9163 211.076L95.3682 209.268H91.3004L88.5885 207.46L88.1365 207.008V199.776L89.0405 198.42L93.1083 197.516H106.668L105.312 193.9V185.313L106.668 184.409L118.871 183.957L119.775 183.505V181.697L107.12 181.245L105.764 179.437V172.205L107.572 170.397L141.922 169.945L142.374 167.685L122.487 167.233L121.131 165.877V158.194L122.487 156.838L124.295 156.386H136.499V154.126L125.199 153.674L124.295 152.77V144.634L126.103 143.278L131.979 142.826H147.798L151.414 142.374V140.566H145.538L142.374 139.662L141.47 138.307V131.527L141.922 130.171L142.826 129.719L164.974 128.815L165.877 128.363V126.555H157.29L154.578 125.651L153.674 123.843V117.967L155.482 115.707L175.369 115.255L175.821 112.996L163.618 112.544L162.262 111.64L161.81 104.408L162.714 102.148L163.618 101.696L236.387 101.244V100.792ZM172.205 126.555L171.753 128.363L172.657 129.267H178.533L179.437 128.815V126.555H172.205ZM159.55 140.114L158.194 141.47L158.646 142.826L161.81 143.278H179.437L183.053 142.826V140.566L181.697 140.114H159.55ZM127.911 181.245L127.459 183.053L128.815 184.409L131.075 183.957L131.527 181.697L131.075 181.245H127.911ZM209.72 181.245L209.268 183.505L209.72 183.957L213.788 184.409L216.499 183.505L216.951 182.149L216.499 181.245H209.72Z"
      fill="#040404"
    />
    <path
      d="M100.792 0H190.285L189.381 2.25991L188.477 3.16388L183.505 3.61586L183.053 5.42379L183.505 5.87577L194.352 6.32775L196.16 7.6837L196.612 18.5313L199.324 19.8872L202.94 19.4352H211.528L213.788 21.2432V29.3788L212.884 30.2828L209.72 30.7348V32.9947L221.471 33.4467L223.731 36.1586L226.895 36.6106L228.251 37.9665V46.5542L237.743 47.0061L239.099 48.3621L239.551 52.4299L242.714 52.8819L245.878 51.526L247.234 48.8141L249.042 47.4581L250.85 47.0061V45.1982L247.686 44.7462L246.782 43.8423V35.7066L248.59 34.3506L253.11 33.8987L254.014 32.0907V25.763L254.918 25.311H272.997L274.353 26.215L274.805 28.9269L275.257 29.3788L279.777 29.8308L281.585 33.4467L286.105 33.8987L287.913 35.2546V44.2943L283.845 45.6502V50.622L283.393 56.9498L282.037 58.3057L276.613 58.7577L275.709 60.5656L277.969 61.4696L278.873 61.9216V70.5092L276.613 72.3172H257.178L249.042 71.8652L248.59 73.6731L253.562 75.481L255.37 78.1929L261.246 78.6449L262.602 79.5489V88.5885L263.958 89.4925L267.574 89.9445L268.477 90.8484V98.5321L272.997 99.8881L273.449 105.764L277.969 106.668L279.325 108.024L279.777 112.544L280.681 112.996H283.393L284.749 110.284L286.105 108.928L289.269 108.476L290.173 107.12V97.1762L291.981 94.9163L296.048 94.4643L296.5 94.0123L296.952 89.4925L298.308 88.1365L306.444 87.2326V85.4246L301.472 84.0687L301.02 83.1647V76.385L302.828 73.2211L306.444 71.8652L306.896 69.6053L307.348 56.9498L309.608 56.0458H312.32L312.772 48.3621L314.58 46.5542H322.715L323.619 47.4581L324.071 52.4299L324.975 53.3339L328.139 53.7859L329.043 55.1418V61.0176L330.851 61.9216V70.5092L329.495 71.4132L323.167 71.8652L322.715 73.6731L322.263 83.1647L320.907 84.9727L317.292 86.7806L316.388 88.1365L313.224 89.0405L312.772 89.4925L312.32 100.792L310.512 102.6L307.348 103.504L309.156 107.12V114.351L306.896 115.707L297.856 116.159L297.404 116.611L296.952 127.459L294.692 128.815L290.625 130.171L290.173 136.951L287.913 138.307H281.133L279.325 136.951L278.873 131.527L275.257 129.267H268.929L267.122 127.459L266.67 116.159L250.85 115.707L249.494 114.351V106.668L250.85 105.312H254.466V102.6H241.359L238.647 99.4361L237.291 98.9841L178.533 98.5321L177.629 97.6282V89.4925L179.889 87.6845L192.996 87.2326L193.448 84.9727H175.821L172.657 84.0687L172.205 83.1647V76.385L174.465 74.1251L177.629 73.6731H224.635L224.183 71.8652L187.573 71.4132L186.217 70.0572V62.3735L187.121 61.0176L189.833 60.5656L211.98 61.0176V58.3057H204.748L202.036 57.4017L200.68 55.1418V49.718L202.94 47.4581L207.008 47.0061H211.076V44.2943H192.544L191.188 42.9383V34.8026L192.996 33.4467H194.352L194.804 31.1868L179.889 30.7348L177.629 29.8308L177.177 28.9269V21.2432L179.889 19.4352H182.149L182.601 17.1753L155.03 17.6273H136.047L117.967 17.1753L115.707 15.3674V8.13568L117.515 6.32775L153.222 5.87577L152.77 3.61586H121.131L112.092 4.06784H102.148L100.792 2.25991V0ZM160.906 3.61586L160.454 5.42379L161.358 6.32775H164.522L164.974 4.06784L164.522 3.61586H160.906ZM201.584 84.9727L201.132 86.7806L201.584 87.6845H225.539L228.251 87.2326L232.771 87.6845L233.223 85.8766L232.771 85.4246L229.607 84.9727H201.584Z"
      fill="#11EB0E"
    />
    <path
      d="M103.956 15.8184H109.38L111.188 16.7223L111.64 19.4342L117.063 19.8862H123.391L125.651 20.3382L126.555 22.1461V28.4739L125.651 30.2818L124.747 30.7338H83.6167L82.7127 30.2818V27.5699L85.8766 26.6659L87.2326 27.1179L90.8484 26.6659L91.3004 26.214L91.7524 21.6941L93.1083 20.3382L95.8202 19.8862H99.8881L101.244 19.4342L102.148 16.7223L103.956 15.8184Z"
      fill="#11EB0E"
    />
    <path
      d="M160.906 280.681H186.217L185.765 283.845L181.697 284.749L180.793 285.2L180.341 289.72L178.533 291.528H168.589L166.329 290.624L165.425 288.364V287.46L160.002 286.104L159.098 284.749L159.55 282.037L160.906 280.681Z"
      fill="#121212"
    />
  </g>
</svg>
